HIERARCHY
ROOT Hips
{
    OFFSET 0.000000 0.000000 0.000000
    CHANNELS 6 Xposition Yposition Zposition Zrotation Xrotation Yrotation
    JOINT Spine
    {
        OFFSET 0.000001 7.292995 0.000000
        CHANNELS 3 Zrotation Xrotation Yrotation
        JOINT Spine1
        {
            OFFSET -0.000000 20.255388 0.000001
            CHANNELS 3 Zrotation Xrotation Yrotation
            JOINT Neck
            {
                OFFSET 0.000001 20.786594 0.000000
                CHANNELS 3 Zrotation Xrotation Yrotation
                JOINT Head
                {
                    OFFSET 0.000003 12.530788 1.776080
                    CHANNELS 3 Zrotation Xrotation Yrotation
                    End Site
                    {
                        OFFSET 0.000000 17.760757 0.000000
                    }
                }
            }
            JOINT LeftShoulder
            {
                OFFSET 3.550532 15.465697 -0.908801
                CHANNELS 3 Zrotation Xrotation Yrotation
                JOINT LeftArm
                {
                    OFFSET 12.513301 -0.000005 0.000001
                    CHANNELS 3 Zrotation Xrotation Yrotation
                    JOINT LeftForeArm
                    {
                        OFFSET 24.225992 0.000005 0.000000
                        CHANNELS 3 Zrotation Xrotation Yrotation
                        JOINT LeftHand
                        {
                            OFFSET 20.711395 -0.000004 0.000000
                            CHANNELS 3 Zrotation Xrotation Yrotation
                            JOINT LeftHandThumb1
                            {
                                OFFSET 2.121964 -2.411326 3.375861
                                CHANNELS 3 Zrotation Xrotation Yrotation
                                JOINT LeftHandThumb2
                                {
                                    OFFSET 2.803212 -0.000001 -0.000002
                                    CHANNELS 3 Zrotation Xrotation Yrotation
                                    JOINT LeftHandThumb3
                                    {
                                        OFFSET 2.395929 0.000000 0.000000
                                        CHANNELS 3 Zrotation Xrotation Yrotation
                                        End Site
                                        {
                                            OFFSET 2.127676 0.000000 0.000000
                                        }
                                    }
                                }
                            }
                            JOINT LeftHandIndex1
                            {
                                OFFSET 8.680776 0.000004 3.375861
                                CHANNELS 3 Zrotation Xrotation Yrotation
                                JOINT LeftHandIndex2
                                {
                                    OFFSET 4.218180 -0.000002 0.000001
                                    CHANNELS 3 Zrotation Xrotation Yrotation
                                    JOINT LeftHandIndex3
                                    {
                                        OFFSET 2.109090 0.000001 -0.000000
                                        CHANNELS 3 Zrotation Xrotation Yrotation
                                        End Site
                                        {
                                            OFFSET 1.872952 0.000000 0.000000
                                        }
                                    }
                                }
                            }
                            JOINT LeftHandMiddle1
                            {
                                OFFSET 8.680775 0.000001 1.118862
                                CHANNELS 3 Zrotation Xrotation Yrotation
                                JOINT LeftHandMiddle2
                                {
                                    OFFSET 4.640000 0.000002 -0.000000
                                    CHANNELS 3 Zrotation Xrotation Yrotation
                                    JOINT LeftHandMiddle3
                                    {
                                        OFFSET 2.530906 0.000005 0.000000
                                        CHANNELS 3 Zrotation Xrotation Yrotation
                                        End Site
                                        {
                                            OFFSET 2.247544 0.000000 0.000000
                                        }
                                    }
                                }
                            }
                            JOINT LeftHandRing1
                            {
                                OFFSET 8.198514 -0.000004 -1.118859
                                CHANNELS 3 Zrotation Xrotation Yrotation
                                JOINT LeftHandRing2
                                {
                                    OFFSET 4.218182 -0.000003 -0.000001
                                    CHANNELS 3 Zrotation Xrotation Yrotation
                                    JOINT LeftHandRing3
                                    {
                                        OFFSET 2.109086 0.000004 0.000001
                                        CHANNELS 3 Zrotation Xrotation Yrotation
                                        End Site
                                        {
                                            OFFSET 1.872952 0.000000 0.000000
                                        }
                                    }
                                }
                            }
                            JOINT LeftHandPinky1
                            {
                                OFFSET 7.716242 0.000005 -3.375859
                                CHANNELS 3 Zrotation Xrotation Yrotation
                                JOINT LeftHandPinky2
                                {
                                    OFFSET 3.374535 0.000004 0.000002
                                    CHANNELS 3 Zrotation Xrotation Yrotation
                                    JOINT LeftHandPinky3
                                    {
                                        OFFSET 1.687275 0.000002 -0.000001
                                        CHANNELS 3 Zrotation Xrotation Yrotation
                                        End Site
                                        {
                                            OFFSET 1.498360 0.000000 0.000000
                                        }
                                    }
                                }
                            }
                        }
                    }
                }
            }
            JOINT RightShoulder
            {
                OFFSET -3.550531 15.465694 -0.908802
                CHANNELS 3 Zrotation Xrotation Yrotation
                JOINT RightArm
                {
                    OFFSET -12.513298 -0.000004 0.000001
                    CHANNELS 3 Zrotation Xrotation Yrotation
                    JOINT RightForeArm
                    {
                        OFFSET -24.225996 -0.000002 -0.000000
                        CHANNELS 3 Zrotation Xrotation Yrotation
                        JOINT RightHand
                        {
                            OFFSET -20.711401 0.000005 0.000001
                            CHANNELS 3 Zrotation Xrotation Yrotation
                            JOINT RightHandThumb1
                            {
                                OFFSET -2.121970 -2.411334 3.375861
                                CHANNELS 3 Zrotation Xrotation Yrotation
                                JOINT RightHandThumb2
                                {
                                    OFFSET -2.803210 0.000003 -0.000004
                                    CHANNELS 3 Zrotation Xrotation Yrotation
                                    JOINT RightHandThumb3
                                    {
                                        OFFSET -2.395930 -0.000001 0.000002
                                        CHANNELS 3 Zrotation Xrotation Yrotation
                                        End Site
                                        {
                                            OFFSET -2.127676 0.000000 0.000000
                                        }
                                    }
                                }
                            }
                            JOINT RightHandIndex1
                            {
                                OFFSET -8.680779 0.000001 3.375860
                                CHANNELS 3 Zrotation Xrotation Yrotation
                                JOINT RightHandIndex2
                                {
                                    OFFSET -4.218180 0.000000 -0.000000
                                    CHANNELS 3 Zrotation Xrotation Yrotation
                                    JOINT RightHandIndex3
                                    {
                                        OFFSET -2.109090 0.000001 -0.000000
                                        CHANNELS 3 Zrotation Xrotation Yrotation
                                        End Site
                                        {
                                            OFFSET -1.872952 0.000000 0.000000
                                        }
                                    }
                                }
                            }
                            JOINT RightHandMiddle1
                            {
                                OFFSET -8.680780 0.000001 1.118860
                                CHANNELS 3 Zrotation Xrotation Yrotation
                                JOINT RightHandMiddle2
                                {
                                    OFFSET -4.640000 -0.000002 0.000001
                                    CHANNELS 3 Zrotation Xrotation Yrotation
                                    JOINT RightHandMiddle3
                                    {
                                        OFFSET -2.530910 0.000001 -0.000000
                                        CHANNELS 3 Zrotation Xrotation Yrotation
                                        End Site
                                        {
                                            OFFSET -2.247544 0.000000 0.000000
                                        }
                                    }
                                }
                            }
                            JOINT RightHandRing1
                            {
                                OFFSET -8.198519 0.000005 -1.118860
                                CHANNELS 3 Zrotation Xrotation Yrotation
                                JOINT RightHandRing2
                                {
                                    OFFSET -4.218180 -0.000006 0.000000
                                    CHANNELS 3 Zrotation Xrotation Yrotation
                                    JOINT RightHandRing3
                                    {
                                        OFFSET -2.109090 0.000001 -0.000000
                                        CHANNELS 3 Zrotation Xrotation Yrotation
                                        End Site
                                        {
                                            OFFSET -1.872952 0.000000 0.000000
                                        }
                                    }
                                }
                            }
                            JOINT RightHandPinky1
                            {
                                OFFSET -7.716248 -0.000002 -3.375859
                                CHANNELS 3 Zrotation Xrotation Yrotation
                                JOINT RightHandPinky2
                                {
                                    OFFSET -3.374540 0.000000 0.000000
                                    CHANNELS 3 Zrotation Xrotation Yrotation
                                    JOINT RightHandPinky3
                                    {
                                        OFFSET -1.687270 0.000004 0.000001
                                        CHANNELS 3 Zrotation Xrotation Yrotation
                                        End Site
                                        {
                                            OFFSET -1.498360 0.000000 0.000000
                                        }
                                    }
                                }
                            }
                        }
                    }
                }
            }
        }
    }
    JOINT LeftUpLeg
    {
        OFFSET 8.880376 -0.000000 -0.000000
        CHANNELS 3 Zrotation Xrotation Yrotation
        JOINT LeftLeg
        {
            OFFSET -0.000001 -40.387405 -0.000001
            CHANNELS 3 Zrotation Xrotation Yrotation
            JOINT LeftFoot
            {
                OFFSET -0.000001 -36.911297 -0.000001
                CHANNELS 3 Zrotation Xrotation Yrotation
                JOINT LeftToeBase
                {
                    OFFSET -0.000002 -5.772240 13.320604
                    CHANNELS 3 Zrotation Xrotation Yrotation
                    End Site
                    {
                        OFFSET 0.000000 0.000000 3.552151
                    }
                }
            }
        }
    }
    JOINT RightUpLeg
    {
        OFFSET -8.880376 0.000000 0.000000
        CHANNELS 3 Zrotation Xrotation Yrotation
        JOINT RightLeg
        {
            OFFSET -0.000001 -40.387390 0.000000
            CHANNELS 3 Zrotation Xrotation Yrotation
            JOINT RightFoot
            {
                OFFSET 0.000002 -36.911297 -0.000001
                CHANNELS 3 Zrotation Xrotation Yrotation
                JOINT RightToeBase
                {
                    OFFSET 0.000001 -5.772238 13.320600
                    CHANNELS 3 Zrotation Xrotation Yrotation
                    End Site
                    {
                        OFFSET 0.000000 0.000000 3.552151
                    }
                }
            }
        }
    }
}
MOTION
Frames: 4
Frame Time: 0.013889
76.118996    83.761787    3.543384    -1.036778    7.466435    -2.066646    0.184384    -21.920731    0.493889    0.462853    15.382264    0.319011    -1.128525    -8.057505    -3.215128    1.979199    4.443441    -3.232730    -2.162889    5.075655    0.025276    -63.614922    33.233128    -9.049230    -4.646673    -17.330132    -15.262046    -19.034199    1.893779    8.644093    31.698488    34.138073    -41.997395    -12.423241    -0.222122    23.316467    -0.000000    0.000000    -0.000000    -12.233416    17.616760    -5.134105    -11.651452    0.000000    -0.000017    -11.651442    0.000003    0.000004    -10.639279    8.847754    -2.789203    -10.511223    -0.000003    -0.000002    -10.511228    -0.000002    -0.000002    -10.062507    -8.863777    -1.521819    -9.941110    0.000001    0.000003    -9.941123    0.000002    -0.000013    -9.844046    -17.751680    -2.939605    -9.371000    0.000000    0.000001    -9.371006    -0.000001    -0.000008    5.906050    5.884428    1.601751    62.208755    29.323494    6.784674    7.831767    -20.149845    21.766584    10.860873    -6.241538    -9.756059    -39.391830    28.738529    42.682636    13.233465    -0.571288    -23.310865    -0.000000    0.000000    -0.000000    18.055382    17.166908    5.084999    17.225210    -0.000000    -0.000003    17.225204    0.000002    0.000002    15.302973    8.685848    2.924244    15.123270    -0.000000    -0.000002    15.123261    0.000000    -0.000000    14.240605    -8.727770    1.111727    14.072286    0.000001    0.000001    14.072300    -0.000003    -0.000004    13.666879    -17.521898    1.999726    13.021317    0.000000    0.000000    13.021310    -0.000003    -0.000004    -2.470519    -7.201376    7.991029    0.000001    11.240617    -0.000001    3.363090    -6.240954    -5.159417    0.000000    1.920218    -0.000000    -1.219280    -8.973560    -7.420892    0.000000    15.275905    0.000002    5.790979    -8.163728    9.396553    0.000000    4.362132    -0.000000    
76.210800    83.746811    3.627637    -0.903737    7.420353    -2.630540    0.152933    -22.014101    0.407996    0.517892    15.326504    0.227923    -1.168128    -7.677673    -3.032740    1.908920    4.354723    -3.040300    -1.927207    4.931900    -0.064122    -63.284218    32.319706    -9.060193    -4.238984    -16.710863    -14.454435    -19.807657    2.202363    9.125620    31.807890    34.048836    -42.154419    -12.418986    -0.220290    23.316500    -0.000000    0.000000    -0.000000    -12.494533    17.600258    -5.092591    -11.900893    0.000004    -0.000003    -11.900888    -0.000003    -0.000005    -10.824383    8.842422    -2.779474    -10.694223    0.000005    0.000000    -10.694223    0.000001    0.000004    -10.214039    -8.859655    -1.537183    -10.090891    -0.000001    -0.000003    -10.090886    0.000003    0.000005    -9.966251    -17.745487    -2.960889    -9.487554    0.000000    -0.000001    -9.487535    0.000001    0.000005    5.668659    5.755690    1.558359    61.877525    28.591806    6.495493    7.640810    -19.715176    21.686459    12.097878    -6.298668    -10.038377    -39.420090    28.703276    42.739933    13.248070    -0.577583    -23.310728    -0.000000    0.000000    -0.000000    18.147644    17.158409    5.410785    17.313747    0.000002    -0.000009    17.313763    0.000002    0.000002    15.310513    8.685544    3.099612    15.130727    0.000005    -0.000003    15.130713    -0.000003    0.000000    14.207154    -8.729042    1.188592    14.039207    -0.000001    0.000000    14.039165    0.000004    -0.000002    13.589863    -17.527264    2.140419    12.947672    -0.000001    -0.000001    12.947655    0.000006    0.000001    -2.667480    -7.119292    8.086683    -0.000000    11.309378    -0.000000    3.737441    -6.169065    -4.656535    0.000000    1.822938    -0.000000    -1.409621    -9.251798    -7.064584    0.000000    15.898961    -0.000000    5.866544    -8.313545    9.640257    0.000001    4.478959    -0.000000    
76.279221    83.729622    3.667209    -0.802061    7.377129    -3.053126    0.117512    -22.019669    0.313426    0.564356    15.256939    0.131823    -1.203787    -7.449712    -2.891816    1.841623    4.275917    -2.889517    -1.732587    4.824540    -0.126279    -62.959156    31.719324    -9.096059    -3.972437    -16.306412    -13.892107    -20.347847    2.406680    9.427437    31.874874    33.991852    -42.274334    -12.425202    -0.222967    23.316467    -0.000000    0.000000    -0.000000    -12.693510    17.587460    -5.071548    -12.090975    -0.000004    0.000001    -12.090971    0.000000    -0.000003    -10.951764    8.838702    -2.779443    -10.820133    -0.000000    0.000003    -10.820136    0.000000    0.000000    -10.308965    -8.857037    -1.562885    -10.184713    -0.000000    -0.000003    -10.184726    -0.000004    0.000009    -10.030982    -17.742180    -3.002785    -9.549295    0.000001    -0.000001    -9.549303    -0.000005    0.000009    5.506798    5.620592    1.530141    61.496662    28.067041    6.350400    7.515234    -19.458471    21.604464    13.015068    -6.348822    -10.436647    -39.506050    28.599047    42.901371    13.227342    -0.568650    -23.310932    -0.000000    0.000000    -0.000000    18.237001    17.150135    5.623959    17.399551    0.000001    0.000007    17.399534    -0.000000    -0.000003    15.348728    8.683980    3.213606    15.168517    0.000000    0.000007    15.168509    0.000000    -0.000000    14.221106    -8.728511    1.257209    14.052992    0.000000    0.000006    14.052992    -0.000000    -0.000001    13.579189    -17.528002    2.270209    12.937483    -0.000000    -0.000002    12.937470    0.000001    0.000006    -2.815768    -7.070485    8.134820    -0.000000    11.363055    0.000001    3.997834    -6.114328    -4.280011    -0.000000    1.734446    0.000000    -1.555344    -9.484250    -6.845199    0.000000    16.373314    -0.000000    5.907975    -8.421794    9.814857    0.000001    4.423487    -0.000000    
76.339890    83.710480    3.711772    -0.710588    7.339444    -3.472503    0.076798    -22.023806    0.204798    0.629419    15.200161    0.018189    -1.249912    -7.262900    -2.688968    1.752783    4.215051    -2.673995    -1.521459    4.710896    -0.183287    -62.540817    31.205902    -9.177272    -3.701224    -15.846292    -13.327935    -21.001427    2.573539    9.739199    31.887459    33.976250    -42.355801    -12.461646    -0.238672    23.316326    -0.000000    0.000000    -0.000000    -12.905195    17.573606    -5.066032    -12.293271    -0.000005    0.000001    -12.293252    -0.000002    -0.000002    -11.085487    8.834752    -2.788114    -10.952315    -0.000005    0.000001    -10.952319    -0.000001    -0.000004    -10.407221    -8.854306    -1.614305    -10.281855    0.000001    -0.000002    -10.281843    -0.000006    0.000008    -10.096066    -17.738827    -3.095206    -9.611384    0.000001    -0.000002    -9.611371    -0.000008    0.000009    5.363059    5.503090    1.467678    61.049831    27.569199    6.210074    7.364265    -19.122429    21.530706    13.965017    -6.230077    -10.731421    -39.640205    28.448999    43.103558    13.186252    -0.550946    -23.311325    -0.000000    0.000000    -0.000000    18.333822    17.141121    5.835582    17.492508    -0.000004    0.000005    17.492495    0.000002    -0.000001    15.405574    8.681646    3.325109    15.224786    -0.000004    0.000004    15.224771    0.000001    0.000001    14.259429    -8.727052    1.335699    14.090907    -0.000002    0.000001    14.090903    0.000000    -0.000000    13.599643    -17.526583    2.421716    12.957043    -0.000001    0.000000    12.957048    -0.000002    -0.000002    -2.943063    -7.033709    8.181155    0.000001    11.446630    -0.000001    4.182447    -6.081521    -3.913205    -0.000000    1.655955    0.000000    -1.673017    -9.747924    -6.573007    -0.000000    16.921825    0.000001    5.932705    -8.478101    9.972298    -0.000000    4.300227    -0.000000    
